<svg xmlns="http://www.w3.org/2000/svg" viewBox="0 0 216.31 45.59"><defs><style>.cls-1{fill:#fff;}</style></defs><g id="Layer_2" data-name="Layer 2"><g id="Layer_1-2" data-name="Layer 1"><path class="cls-1" d="M44.22,2.73V7.52H36.48v19h-6.2v-19H22.49V2.73Z"/><path class="cls-1" d="M52.8,26.87a11.26,11.26,0,0,1-5.17-1.11,8,8,0,0,1-3.37-3.21,10.09,10.09,0,0,1-1.19-5.05,10,10,0,0,1,1.19-5,8,8,0,0,1,3.33-3.21,10.56,10.56,0,0,1,4.92-1.12,10,10,0,0,1,4.85,1.1,7.54,7.54,0,0,1,3,3,9.21,9.21,0,0,1,1,4.41c0,.44,0,.87,0,1.3s-.06.79-.1,1.08H47V15.77H58.6l-2.92,1.12a5.87,5.87,0,0,0-.77-3.31,2.7,2.7,0,0,0-2.4-1.16,3.45,3.45,0,0,0-2,.54,3.33,3.33,0,0,0-1.23,1.7,9,9,0,0,0-.41,2.95,7.29,7.29,0,0,0,.47,2.87,3.1,3.1,0,0,0,1.33,1.58,4.14,4.14,0,0,0,2.09.49A3.89,3.89,0,0,0,55,22a3.28,3.28,0,0,0,1.21-1.52l4.9,1.63a5.73,5.73,0,0,1-1.75,2.61,8.32,8.32,0,0,1-3,1.6A11.87,11.87,0,0,1,52.8,26.87Z"/><path class="cls-1" d="M70.93.85V20.39a2.82,2.82,0,0,0,.39,1.69,1.6,1.6,0,0,0,1.34.5,4.56,4.56,0,0,0,.9-.07l.86-.21L74,26a5.81,5.81,0,0,1-1.7.65,8.58,8.58,0,0,1-2,.25,5.62,5.62,0,0,1-4.18-1.33c-.87-.89-1.3-2.34-1.3-4.36V.85Z"/><path class="cls-1" d="M85.45,26.87a11.26,11.26,0,0,1-5.17-1.11,8,8,0,0,1-3.37-3.21,10.09,10.09,0,0,1-1.19-5.05,10,10,0,0,1,1.19-5,8,8,0,0,1,3.33-3.21,10.56,10.56,0,0,1,4.92-1.12A10,10,0,0,1,90,9.23a7.54,7.54,0,0,1,3,3,9.21,9.21,0,0,1,1,4.41c0,.44,0,.87,0,1.3s-.07.79-.11,1.08H79.69V15.77H91.25l-2.92,1.12a5.87,5.87,0,0,0-.77-3.31,2.7,2.7,0,0,0-2.4-1.16,3.45,3.45,0,0,0-2,.54A3.33,3.33,0,0,0,82,14.66a9,9,0,0,0-.41,2.95A7.48,7.48,0,0,0,82,20.48a3.15,3.15,0,0,0,1.33,1.58,4.14,4.14,0,0,0,2.09.49A3.89,3.89,0,0,0,87.63,22a3.28,3.28,0,0,0,1.21-1.52l4.9,1.63A5.73,5.73,0,0,1,92,24.73,8.32,8.32,0,0,1,89,26.33,11.87,11.87,0,0,1,85.45,26.87Z"/><path class="cls-1" d="M97.52,26.51v-18H103l.18,3.5a6.43,6.43,0,0,1,2.43-2.88,6.76,6.76,0,0,1,3.63-1,6.57,6.57,0,0,1,3.49.9,5.42,5.42,0,0,1,2.2,2.67,6,6,0,0,1,1.5-2,6.06,6.06,0,0,1,2.1-1.19,7.87,7.87,0,0,1,2.46-.4,6.85,6.85,0,0,1,3.17.71A5.17,5.17,0,0,1,126.34,11a7.09,7.09,0,0,1,.81,3.55v12H121V15.92a3.42,3.42,0,0,0-.67-2.42,2.39,2.39,0,0,0-1.78-.68,3.09,3.09,0,0,0-1.64.45,2.87,2.87,0,0,0-1.13,1.35,5.56,5.56,0,0,0-.4,2.27v9.62h-6.13V15.92a3.41,3.41,0,0,0-.68-2.42,2.43,2.43,0,0,0-1.77-.68,3.07,3.07,0,0,0-1.57.43,3,3,0,0,0-1.17,1.35,5.66,5.66,0,0,0-.43,2.4v9.51Z"/><path class="cls-1" d="M153,2.73l-8.43,23.78h-7.28L128.84,2.73h6.52l4.37,14.38L141,21.79l1.26-4.61,4.44-14.45Z"/><path class="cls-1" d="M158.5,6.4a4.22,4.22,0,0,1-2.72-.7,2.71,2.71,0,0,1-.85-2.22,2.75,2.75,0,0,1,.85-2.25,5.6,5.6,0,0,1,5.42,0,2.73,2.73,0,0,1,.87,2.25,2.69,2.69,0,0,1-.87,2.22A4.22,4.22,0,0,1,158.5,6.4Zm3.06,2.09v18h-6.12v-18Z"/><path class="cls-1" d="M174.72,26.87a11.23,11.23,0,0,1-5.17-1.11,8,8,0,0,1-3.37-3.21A10,10,0,0,1,165,17.5a10,10,0,0,1,1.19-5,8,8,0,0,1,3.33-3.21,10.56,10.56,0,0,1,4.92-1.12,10,10,0,0,1,4.85,1.1,7.52,7.52,0,0,1,3,3,9.1,9.1,0,0,1,1.05,4.41c0,.44,0,.87,0,1.3a8.85,8.85,0,0,1-.11,1.08H169V15.77h11.57l-2.92,1.12a6,6,0,0,0-.77-3.31,2.7,2.7,0,0,0-2.4-1.16,3.5,3.5,0,0,0-2,.54,3.31,3.31,0,0,0-1.22,1.7,8.77,8.77,0,0,0-.41,2.95,7.49,7.49,0,0,0,.46,2.87,3.17,3.17,0,0,0,1.34,1.58,4.12,4.12,0,0,0,2.09.49A3.89,3.89,0,0,0,176.9,22a3.28,3.28,0,0,0,1.21-1.52l4.9,1.63a5.73,5.73,0,0,1-1.75,2.61,8.37,8.37,0,0,1-3,1.6A11.8,11.8,0,0,1,174.72,26.87Z"/><path class="cls-1" d="M209.89,8.49h6.42l-5.45,18h-7.35l-3.28-11.06-3.17,11.06h-7.31l-5.48-18h6.45l3,13.3,3.53-13.3h6.05l3.5,13.3Z"/><path class="cls-1" d="M9.62,36.73a2.22,2.22,0,0,0-.54-1.67,2.15,2.15,0,0,0-1.54-.51H3.67v-.7h4a2.55,2.55,0,0,1,2.87,2.89v5.72h-1ZM3.67,38.25l.14-1h.81v5.26h-1Z"/><path class="cls-1" d="M17.34,36.39a3.23,3.23,0,0,1,.46-1.84h-5v-.7H20v.7H18.72a3.27,3.27,0,0,0-.45,1.84v6.07h-.93Z"/><path class="cls-1" d="M22.44,35.68l-.23-1.83h.93l.25,1.83V38l0,1-.93.2Z"/><path class="cls-1" d="M32.94,41.46a3.53,3.53,0,0,1-2.85,1.17,6.61,6.61,0,0,1-1.36-.14l.1-.7a5.84,5.84,0,0,0,1.21.12q3,0,3-3.87c0-2.36-.88-3.55-2.65-3.55a2.29,2.29,0,0,0-1.59.52,2.9,2.9,0,0,0-.86,1.36l-1.25,6.09h-.95L27,36.35l-1.33-2.5h1l.94,1.91a2.78,2.78,0,0,1,1.11-1.48,3.12,3.12,0,0,1,1.73-.49,3.39,3.39,0,0,1,2.53,1,4.64,4.64,0,0,1,.95,3.29A5.09,5.09,0,0,1,32.94,41.46Z"/><path class="cls-1" d="M42.09,33.85v.75l-3.41,7.86h-.93l3.39-7.91H35.67V31.23h.89v2.62Z"/><path class="cls-1" d="M46.81,42a2.1,2.1,0,0,0,1.46-.56,2,2,0,0,0,.4-1.41v-6.2h3.89c1.91,0,2.86,1,2.86,2.89v5.72h-.93V36.73a1.88,1.88,0,0,0-2.1-2.18H49.6V40A2.65,2.65,0,0,1,49,41.9a3.1,3.1,0,0,1-2.05.76Z"/><path class="cls-1" d="M58.07,35.68l-.22-1.83h.93L59,35.68v6.78h-1Z"/><path class="cls-1" d="M61.74,35.68l-.22-1.83h.92l.25,1.83V38l0,1-.93.2Z"/><path class="cls-1" d="M68.36,42.46l-.47-2.27a5.14,5.14,0,0,1-3.07,2.47l-.34-.72a5.85,5.85,0,0,0,1.91-1,5.14,5.14,0,0,0,1.31-1.66v-3A2.69,2.69,0,0,0,67.48,35a1.06,1.06,0,0,0-.86-.5l-1.12-.16.13-.7,1.26.18a1.92,1.92,0,0,1,1.36.71,3,3,0,0,1,.38,1.67V39.3l.64,3.16Z"/><path class="cls-1" d="M71.52,35.68l-.22-1.83h.93l.24,1.83v6.78h-1Z"/><path class="cls-1" d="M81,33.85v.75l-3.41,7.86h-.93L80,34.55H74.55V31.23h.9v2.62Z"/><path class="cls-1" d="M83.27,35.68,83,33.85H84l.24,1.83v6.78h-.94Z"/><path class="cls-1" d="M86.4,41.74h3.16V36.29a1.75,1.75,0,0,0-.38-1.22,1.81,1.81,0,0,0-1.11-.52l-1.13-.17.15-.7,1.26.18a2.25,2.25,0,0,1,2.14,2.42v6.18H86.4Z"/><path class="cls-1" d="M92.62,41.74h2.12q3.08,0,3.08-3.13v-.92q0-3.13-3.08-3.14H92.62v-.7h2.25a3.94,3.94,0,0,1,2.88,1,3.81,3.81,0,0,1,1,2.89v.87a3.81,3.81,0,0,1-1,2.89,4,4,0,0,1-2.88,1H92.62Z"/><path class="cls-1" d="M100.7,33.85h.94l1,7.95a6.17,6.17,0,0,0,3.4-1.25,3.79,3.79,0,0,0,1.25-3.32v-.36a2.34,2.34,0,0,0-.6-1.69,2.55,2.55,0,0,0-1.79-.69l-.86-.05.07-.72.93.07q3,.2,3.15,2.94l0,.44a4.43,4.43,0,0,1-1.69,4,8.45,8.45,0,0,1-4.72,1.45Z"/><path class="cls-1" d="M116.33,33.85v.75l-3.4,7.86H112l3.39-7.91h-5.48V31.23h.9v2.62Z"/><path class="cls-1" d="M127.68,36.73a2.22,2.22,0,0,0-.54-1.67,2.15,2.15,0,0,0-1.54-.51h-3.87v-.7h4a2.55,2.55,0,0,1,2.87,2.89v5.72h-.95Zm-6,1.52.13-1h.81v5.26h-.94Z"/><path class="cls-1" d="M130.78,33.85h.95l1.05,7.95a6.17,6.17,0,0,0,3.4-1.25,3.79,3.79,0,0,0,1.25-3.32v-.36a2.34,2.34,0,0,0-.6-1.69,2.55,2.55,0,0,0-1.79-.69l-.86-.05.07-.72.92.07q3.06.2,3.16,2.94v.44a4.42,4.42,0,0,1-1.68,4,8.47,8.47,0,0,1-4.72,1.45Z"/><path class="cls-1" d="M146.42,33.85v.75L143,42.46h-.93l3.39-7.91H140V31.23h.89v2.62Z"/><path class="cls-1" d="M148.71,35.68l-.22-1.83h.93l.24,1.83v6.78h-.95Z"/><path class="cls-1" d="M154.6,41.76a5.63,5.63,0,0,0,1.61-.42,2.52,2.52,0,0,0,1.12-1.1,5.12,5.12,0,0,0,.56-2.21l.31-3.48H152v-.7h7.27l-.06.66-.3,3.41a4.83,4.83,0,0,1-1.26,3.35,4.34,4.34,0,0,1-2.89,1.19ZM152,38l.13-1.06H153v8.67H152Z"/><path class="cls-1" d="M161.59,41.74h2.6a3.71,3.71,0,0,0,2.36-.7,3,3,0,0,0,.88-2.45v-.9c0-2.09-.87-3.14-2.6-3.14h-2l-.5,1.88a4,4,0,0,0-.14.89,1.22,1.22,0,0,0,.35.92,2.09,2.09,0,0,0,1.14.46l-.25.66a2.86,2.86,0,0,1-1.6-.64,1.81,1.81,0,0,1-.5-1.35,4.17,4.17,0,0,1,.12-1l.66-2.54H165a3.26,3.26,0,0,1,2.53,1,4.13,4.13,0,0,1,.88,2.87v.87a3.61,3.61,0,0,1-1.12,3,4.46,4.46,0,0,1-2.93.91h-2.72Z"/><path class="cls-1" d="M176.42,36.73a2.22,2.22,0,0,0-.54-1.67,2.17,2.17,0,0,0-1.54-.51h-3.88v-.7h4a2.55,2.55,0,0,1,2.88,2.89v5.72h-1Zm-6,1.52.14-1h.81v5.26h-.95Z"/><path class="cls-1" d="M183.5,35.68l-.22-1.83h.93l.24,1.83V38l0,1-.93.2Z"/><path class="cls-1" d="M191.56,36.73a2.22,2.22,0,0,0-.54-1.67,2.18,2.18,0,0,0-1.55-.51h-2.94v-.7h3.1a2.55,2.55,0,0,1,2.88,2.89v5.72h-.95Z"/><path class="cls-1" d="M201.63,42.46h-7.12v-.72h5.66l-5.25-7.89h1l2.62,3.93,1.87-3.93h1L199,38.56Z"/><path class="cls-1" d="M203.86,35.68l-.23-1.83h.93l.24,1.83v6.78h-.94Z"/><path class="cls-1" d="M206.51,42a1.7,1.7,0,0,0,1.86-2v-6.2h3.89a2.55,2.55,0,0,1,2.86,2.89v5.72h-.93V36.73a1.88,1.88,0,0,0-2.1-2.18H209.3V40a2.65,2.65,0,0,1-.64,1.93,3.13,3.13,0,0,1-2,.76Z"/><rect class="cls-1" x="1.36" y="1.36" width="10.23" height="10.23" transform="translate(-1.73 2.4) rotate(-18.6)"/><rect class="cls-1" x="16.56" y="16.31" width="10.23" height="10.23"/><rect class="cls-1" x="3.26" y="16.31" width="10.23" height="10.23"/></g></g></svg>