<svg id="Layer_1" data-name="Layer 1" xmlns="http://www.w3.org/2000/svg" viewBox="0 0 524 486"><defs><style>.cls-1{fill:none;}.cls-2{fill:#1ba098;}.cls-3{isolation:isolate;}.cls-4{fill:#0d1924;}.cls-5{fill:#010101;}</style></defs><g id="Ellipse_6" data-name="Ellipse 6"><circle class="cls-1" cx="261.5" cy="142.5" r="142.5"/><path class="cls-2" d="M297,462.5c-78.57,0-142.5-63.93-142.5-142.5S218.43,177.5,297,177.5,439.5,241.43,439.5,320,375.58,462.5,297,462.5Zm0-282c-76.92,0-139.5,62.58-139.5,139.5S220.08,459.5,297,459.5,436.5,396.92,436.5,320,373.92,180.5,297,180.5Z" transform="translate(-35.5 -177.5)"/></g><g id="Ellipse_7" data-name="Ellipse 7"><circle class="cls-1" cx="381.5" cy="343.5" r="142.5"/><path class="cls-2" d="M417,663.5c-78.58,0-142.5-63.92-142.5-142.5S338.42,378.5,417,378.5,559.5,442.42,559.5,521,495.58,663.5,417,663.5Zm0-282c-76.92,0-139.5,62.58-139.5,139.5S340.08,660.5,417,660.5,556.5,597.92,556.5,521,493.92,381.5,417,381.5Z" transform="translate(-35.5 -177.5)"/></g><g id="Ellipse_8" data-name="Ellipse 8"><circle class="cls-1" cx="142.5" cy="343.5" r="142.5"/><path class="cls-2" d="M178,663.5C99.43,663.5,35.5,599.58,35.5,521S99.43,378.5,178,378.5,320.5,442.42,320.5,521,256.57,663.5,178,663.5Zm0-282c-76.92,0-139.5,62.58-139.5,139.5S101.08,660.5,178,660.5,317.5,597.92,317.5,521,254.92,381.5,178,381.5Z" transform="translate(-35.5 -177.5)"/></g><g id="עיצוב_מולטימדיה_אינטראקטיבית" data-name="עיצוב מולטימדיה אינטראקטיבית" class="cls-3"><g class="cls-3"><path class="cls-4" d="M84.57,550.16l.31-1.88h1.85v9.44H84.57Zm9.61-2.86a3.68,3.68,0,0,0-.79-2.62,3,3,0,0,0-2.24-.79H84.6v-1.71h7c3.13,0,4.7,1.73,4.7,5.21v10.33H94.18Z" transform="translate(-35.5 -177.5)"/><path class="cls-4" d="M100.36,545.45l-.36-3.27h2.13l.39,3.27v4.18l0,1.76-2.13.45Z" transform="translate(-35.5 -177.5)"/><path class="cls-4" d="M113,547.16a5.79,5.79,0,0,1,.76-3.27h-7.84v-1.71h12v1.71h-2.07a6.49,6.49,0,0,0-.67,3.27v10.56H113Z" transform="translate(-35.5 -177.5)"/><path class="cls-4" d="M133.31,555.9a5.72,5.72,0,0,1-4.78,2.13,11.32,11.32,0,0,1-2.29-.26l.22-1.7a8,8,0,0,0,1.9.22,3.87,3.87,0,0,0,3.43-1.61,8.47,8.47,0,0,0,1.11-4.8c0-4.07-1.34-6.11-4-6.11a3.42,3.42,0,0,0-2.44.87,4.42,4.42,0,0,0-1.26,2.27l-2,10.81h-2.15l2.07-10.89L121,542.18h2.24l1.4,3.36a5,5,0,0,1,1.79-2.65,4.68,4.68,0,0,1,2.8-.88,5.25,5.25,0,0,1,4.22,1.83q1.54,1.85,1.55,5.95A9.75,9.75,0,0,1,133.31,555.9Z" transform="translate(-35.5 -177.5)"/><path class="cls-4" d="M138.58,545.45l-.36-3.27h2.13l.39,3.27v4.18l0,1.76-2.13.45Z" transform="translate(-35.5 -177.5)"/><path class="cls-4" d="M144,542.18h2.16L147.82,556a8.72,8.72,0,0,0,5.2-2.13c1.29-1.19,1.9-3,1.8-5.46v-.7a4.23,4.23,0,0,0-.89-2.8,3.63,3.63,0,0,0-2.69-1.17l-1.4-.09.14-1.73,1.57.11a6,6,0,0,1,3.88,1.48,5.42,5.42,0,0,1,1.49,3.92l0,.79q.17,4.82-2.85,7.16a14.19,14.19,0,0,1-8.18,2.61Z" transform="translate(-35.5 -177.5)"/><path class="cls-4" d="M170.2,542.18V544l-5.41,13.72h-2.15l5.4-13.83h-8.68v-6.25h2v4.54Z" transform="translate(-35.5 -177.5)"/><path class="cls-4" d="M173.67,545.45l-.37-3.27h2.13l.39,3.27v12.27h-2.15Z" transform="translate(-35.5 -177.5)"/><path class="cls-4" d="M191.6,555.9a5.7,5.7,0,0,1-4.77,2.13,11.42,11.42,0,0,1-2.3-.26l.23-1.7a8,8,0,0,0,1.9.22,3.88,3.88,0,0,0,3.43-1.61,8.47,8.47,0,0,0,1.11-4.8q0-6.11-4-6.11a3.38,3.38,0,0,0-2.43.87,4.42,4.42,0,0,0-1.26,2.27l-2,10.81h-2.16l2.07-10.89-2.15-4.65h2.24l1.4,3.36a5,5,0,0,1,1.79-2.65,4.66,4.66,0,0,1,2.8-.88,5.23,5.23,0,0,1,4.21,1.83q1.56,1.85,1.56,5.95A9.75,9.75,0,0,1,191.6,555.9Z" transform="translate(-35.5 -177.5)"/><path class="cls-4" d="M213.93,556v1.71H201.72V556h8.07V547.3a3.63,3.63,0,0,0-.79-2.62,3,3,0,0,0-2.24-.79h-5v-1.71h5.52c3.14,0,4.7,1.73,4.7,5.21V556Z" transform="translate(-35.5 -177.5)"/><path class="cls-4" d="M217.21,545.45l-.37-3.27H219l.39,3.27v12.27h-2.15Z" transform="translate(-35.5 -177.5)"/><path class="cls-4" d="M234.43,557.72h-12V556h8.82L223,542.18h2.24l4,6.69,2.86-6.69h2.18l-3.86,8.65Z" transform="translate(-35.5 -177.5)"/><path class="cls-4" d="M238,545.45l-.36-3.27h2.13l.39,3.27v4.18l0,1.76-2.13.45Z" transform="translate(-35.5 -177.5)"/><path class="cls-4" d="M255.43,542.18a61.51,61.51,0,0,1-.44,8.59,8,8,0,0,1-2,4.48,9.67,9.67,0,0,1-5.17,2.36l-4.7.92-.31-1.74,5-.95-3.62-13.66h2.16l3.42,13.1a4.62,4.62,0,0,0,2.49-2.17,9.82,9.82,0,0,0,.92-3.75c.11-1.52.18-3.92.2-7.18Z" transform="translate(-35.5 -177.5)"/></g><g class="cls-3"><path class="cls-4" d="M94.85,593.57a3.11,3.11,0,0,0,2.28-.94,3.87,3.87,0,0,0,.63-2.42v-11h6.86c3.14,0,4.7,1.73,4.7,5.21v10.33h-2.15V584.3a3.63,3.63,0,0,0-.79-2.62,3,3,0,0,0-2.24-.79H99.92V590a5.22,5.22,0,0,1-1.15,3.68,5.62,5.62,0,0,1-3.7,1.44Z" transform="translate(-35.5 -177.5)"/><path class="cls-4" d="M113.36,582.45l-.37-3.27h2.13l.39,3.27v4.18l0,1.76-2.12.45Z" transform="translate(-35.5 -177.5)"/><path class="cls-4" d="M131.08,593v1.71H118.87V593h8.07V584.3a3.68,3.68,0,0,0-.79-2.62,3,3,0,0,0-2.24-.79h-5v-1.71h5.52c3.13,0,4.7,1.73,4.7,5.21V593Z" transform="translate(-35.5 -177.5)"/><path class="cls-4" d="M134.36,582.45l-.37-3.27h2.13l.39,3.27v4.18l0,1.76-2.12.45Z" transform="translate(-35.5 -177.5)"/><path class="cls-4" d="M139.82,579.18H142L143.6,593a8.71,8.71,0,0,0,5.19-2.13q2-1.78,1.81-5.46v-.7a4.19,4.19,0,0,0-.9-2.8,3.61,3.61,0,0,0-2.69-1.17l-1.4-.09.14-1.73,1.57.11a6,6,0,0,1,3.88,1.48,5.46,5.46,0,0,1,1.5,3.92l0,.79c.12,3.21-.84,5.6-2.85,7.16a14.16,14.16,0,0,1-8.18,2.61Z" transform="translate(-35.5 -177.5)"/><path class="cls-4" d="M160.09,593a6.84,6.84,0,0,0,2.49-.7,4.09,4.09,0,0,0,1.68-1.85,9.71,9.71,0,0,0,.84-3.69l.48-5.88H155.5v-1.71h12.37l-.08,1.54-.45,5.63a9.78,9.78,0,0,1-2.06,6.16,6.67,6.67,0,0,1-5,2.21Zm-4.54-6.24.31-1.91h1.85v15.46h-2.16Z" transform="translate(-35.5 -177.5)"/><path class="cls-4" d="M181.65,594.72l-6.36-9.55-3,9.55h-2.08l3.06-9.63.75-1.85-2.57-4.06h2.21l2.49,3.92,2.63,3.89.65-2.32,1.68-5.49h2.1l-3.17,9.71,3.95,5.83Z" transform="translate(-35.5 -177.5)"/><path class="cls-4" d="M194.11,584.3a3.63,3.63,0,0,0-.79-2.62,3,3,0,0,0-2.24-.79h-5v-1.71h5.43c3.14,0,4.7,1.73,4.7,5.21v10.33h-2.15Z" transform="translate(-35.5 -177.5)"/><path class="cls-4" d="M199.59,579.18h2.16L203.37,593a8.72,8.72,0,0,0,5.2-2.13q2-1.78,1.8-5.46v-.7a4.18,4.18,0,0,0-.89-2.8,3.61,3.61,0,0,0-2.69-1.17l-1.4-.09.14-1.73,1.57.11a6,6,0,0,1,3.88,1.48,5.42,5.42,0,0,1,1.49,3.92l0,.79q.17,4.82-2.85,7.16a14.16,14.16,0,0,1-8.18,2.61Z" transform="translate(-35.5 -177.5)"/><path class="cls-4" d="M214.66,593h4.87v-9.32a3.16,3.16,0,0,0-.54-2,2.56,2.56,0,0,0-1.64-.83l-1.88-.28.31-1.68,2.44.36a4,4,0,0,1,2.57,1.39,4.64,4.64,0,0,1,.9,3v11.09h-7Z" transform="translate(-35.5 -177.5)"/><path class="cls-4" d="M225.8,582.45l-.36-3.27h2.13l.39,3.27v4.18l0,1.76-2.13.45Z" transform="translate(-35.5 -177.5)"/><path class="cls-4" d="M242.24,594.72l-6.36-9.55-3,9.55h-2.08l3.06-9.63.75-1.85-2.57-4.06h2.21l2.49,3.92,2.63,3.89.65-2.32,1.68-5.49h2.1l-3.17,9.71,4,5.83Z" transform="translate(-35.5 -177.5)"/></g></g><path class="cls-5" d="M157.32,485.14a.85.85,0,0,1-.79-.82v-3.7a.76.76,0,0,1,.24-.59.84.84,0,0,1,1.44.59v3.7a.83.83,0,0,1-.8.84h0Z" transform="translate(-35.5 -177.5)"/><path class="cls-5" d="M154.53,474.89a3.36,3.36,0,0,1,0-6.72h0a3.37,3.37,0,0,1,2.38,5.73,3.41,3.41,0,0,1-2.37,1Zm0-5a1.66,1.66,0,0,0-1.19.5,1.62,1.62,0,0,0-.49,1.18,1.68,1.68,0,0,0,2.86,1.18,1.7,1.7,0,0,0,.49-1.18,1.72,1.72,0,0,0-1.67-1.72Z" transform="translate(-35.5 -177.5)"/><path class="cls-5" d="M151.68,485.16a.85.85,0,0,1-.84-.84v-3.7a.79.79,0,0,1,.24-.6.83.83,0,0,1,.6-.24.84.84,0,0,1,.84.84h0v3.7a.87.87,0,0,1-.24.59A.86.86,0,0,1,151.68,485.16Z" transform="translate(-35.5 -177.5)"/><path class="cls-5" d="M160.26,485.15a.83.83,0,0,1-.84-.82v-4.89a2.63,2.63,0,0,0-2.34-2.61,14.93,14.93,0,0,0-2-.08h-1a19.58,19.58,0,0,0-2.17.09,2.62,2.62,0,0,0-2.34,2.63v4.84a.86.86,0,0,1-.84.84.83.83,0,0,1-.84-.82v-4.86a4.3,4.3,0,0,1,3.82-4.3,18.4,18.4,0,0,1,2.35-.1h1a19.79,19.79,0,0,1,2.17.09,4.32,4.32,0,0,1,3.84,4.28v4.88a.86.86,0,0,1-.84.84Z" transform="translate(-35.5 -177.5)"/><path class="cls-5" d="M181.68,521.93H155.53a6.41,6.41,0,0,1-6.4-6.4v-25.8h1.75v25.8a4.66,4.66,0,0,0,4.65,4.65h26.15a4.66,4.66,0,0,0,4.64-4.65v-25h1.76v25A6.42,6.42,0,0,1,181.68,521.93Z" transform="translate(-35.5 -177.5)"/><path class="cls-5" d="M188.08,479.76h-1.76V454.15a4.65,4.65,0,0,0-4.64-4.65H155.53a4.65,4.65,0,0,0-4.65,4.65v9.45h-1.75v-9.45a6.39,6.39,0,0,1,6.4-6.4h26.15a6.41,6.41,0,0,1,6.4,6.4Z" transform="translate(-35.5 -177.5)"/><rect class="cls-5" x="114.5" y="278.21" width="37.2" height="1.76"/><rect class="cls-5" x="114.5" y="332.84" width="37.2" height="1.76"/><path class="cls-5" d="M168.6,518.32a2,2,0,1,1,2-2A2,2,0,0,1,168.6,518.32Zm0-3.08a1.1,1.1,0,1,0,0,2.2,1.11,1.11,0,0,0,1.1-1.1h0a1.1,1.1,0,0,0-1.1-1.09Z" transform="translate(-35.5 -177.5)"/><path class="cls-5" d="M167.11,503.32a1,1,0,0,1-1-.75,1,1,0,0,1,.51-1.1,3.55,3.55,0,0,0,2-3.17v-2.2a8.45,8.45,0,0,1,8-8.44h.09l20.16-17.86a3.56,3.56,0,0,1,2.44-.93,3.69,3.69,0,0,1,2.76,6.14l-17.82,20.2v.11a8.49,8.49,0,0,1-8.44,8Zm9.47-13.72a6.55,6.55,0,0,0-6,6.5v2.22a5.63,5.63,0,0,1-.68,2.66l-.23.41h6.18a6.56,6.56,0,0,0,6.5-6v-.13l-5.66-5.65Zm22.77-18.78a1.73,1.73,0,0,0-1.15.43l-19.67,17.37,4.78,4.78,17.35-19.68a1.74,1.74,0,0,0-.14-2.46A1.69,1.69,0,0,0,199.35,470.82Z" transform="translate(-35.5 -177.5)"/><path class="cls-5" d="M154.53,491.32a14.69,14.69,0,0,1,0-29.38v1.75a12.94,12.94,0,1,0,12.91,13h1.75A14.72,14.72,0,0,1,154.53,491.32Z" transform="translate(-35.5 -177.5)"/><path class="cls-5" d="M158.45,464.32h-.25a12.55,12.55,0,0,0-3.7-.54.88.88,0,0,1-.19-1.75h.19a14.28,14.28,0,0,1,4.2.61.89.89,0,0,1,.6,1.09A.91.91,0,0,1,158.45,464.32Z" transform="translate(-35.5 -177.5)"/><path class="cls-5" d="M164.67,468.19a.88.88,0,0,1-.65-.29,12.41,12.41,0,0,0-2.91-2.35A.88.88,0,0,1,162,464a14.37,14.37,0,0,1,3.3,2.68.88.88,0,0,1,0,1.23h0A1,1,0,0,1,164.67,468.19Z" transform="translate(-35.5 -177.5)"/><path class="cls-5" d="M168,474.7a.88.88,0,0,1-.86-.69,12.94,12.94,0,0,0-1.29-3.52.87.87,0,1,1,1.54-.81,14.9,14.9,0,0,1,1.47,4,.87.87,0,0,1-.68,1Z" transform="translate(-35.5 -177.5)"/><path class="cls-5" d="M154.53,466.49a.89.89,0,0,1-.88-.88V460.1a.88.88,0,0,1,1.76,0v5.51a.89.89,0,0,1-.88.88Z" transform="translate(-35.5 -177.5)"/><path class="cls-5" d="M171.07,477.54h-5.54a.88.88,0,0,1-.19-1.75.6.6,0,0,1,.19,0H171a.86.86,0,0,1,1,.78.88.88,0,0,1-.78,1h-.15Z" transform="translate(-35.5 -177.5)"/><path class="cls-5" d="M154.53,494.11a.87.87,0,0,1-.88-.87v-5.51a.88.88,0,0,1,1.76,0v5.51a.87.87,0,0,1-.87.87Z" transform="translate(-35.5 -177.5)"/><path class="cls-5" d="M143.44,477.54h-5.51a.88.88,0,0,1-.19-1.75.6.6,0,0,1,.19,0h5.51a.86.86,0,0,1,1,.78.88.88,0,0,1-.78,1Z" transform="translate(-35.5 -177.5)"/><g id="פיתוח_הדרכה" data-name="פיתוח הדרכה" class="cls-3"><g class="cls-3"><path class="cls-4" d="M232,349.16l.3-1.81h1.78v9.1H232Zm9.27-2.75a3.56,3.56,0,0,0-.76-2.53,2.89,2.89,0,0,0-2.16-.77H232v-1.64h6.78q4.53,0,4.53,5v10h-2.07Z" transform="translate(-35.5 -177.5)"/><path class="cls-4" d="M246.32,354.8h3.57a4.16,4.16,0,0,0,3.29-1.26,5.52,5.52,0,0,0,1.11-3.73v-1.7a5.52,5.52,0,0,0-1.11-3.73,4.16,4.16,0,0,0-3.29-1.27h-3.57v-1.64h4a5.81,5.81,0,0,1,4.5,1.72,7.19,7.19,0,0,1,1.58,5v1.54a7.15,7.15,0,0,1-1.58,5,5.78,5.78,0,0,1-4.5,1.73h-4Z" transform="translate(-35.5 -177.5)"/><path class="cls-4" d="M266.63,346.41a3.56,3.56,0,0,0-.76-2.53,2.89,2.89,0,0,0-2.16-.77h-4.78v-1.64h5.24q4.53,0,4.53,5v10h-2.07Z" transform="translate(-35.5 -177.5)"/><path class="cls-4" d="M278.86,346.27a5.64,5.64,0,0,1,.73-3.16H272v-1.64h11.55v1.64h-2a6.35,6.35,0,0,0-.64,3.16v10.18h-2.08Z" transform="translate(-35.5 -177.5)"/><path class="cls-4" d="M286.69,349.16l.29-1.81h1.79v9.1h-2.08Zm9.26-2.75a3.56,3.56,0,0,0-.76-2.53,2.89,2.89,0,0,0-2.16-.77h-6.32v-1.64h6.78c3,0,4.54,1.67,4.54,5v10H296Z" transform="translate(-35.5 -177.5)"/><path class="cls-4" d="M317.38,342.83a5.94,5.94,0,0,1,1.19,4v9.58h-2.08v-9.66a4.28,4.28,0,0,0-.74-2.74,2.59,2.59,0,0,0-2.17-.94H309v13.34h-2.08v-15H314A4.18,4.18,0,0,1,317.38,342.83Z" transform="translate(-35.5 -177.5)"/><path class="cls-4" d="M322.51,344.63l-.35-3.16h2.06l.37,3.16v11.82h-2.08Z" transform="translate(-35.5 -177.5)"/><path class="cls-4" d="M327.05,355.34a3,3,0,0,0,2.2-.9,3.69,3.69,0,0,0,.61-2.33V341.47h6.61q4.54,0,4.54,5v10h-2.08v-10a3.51,3.51,0,0,0-.76-2.53,2.89,2.89,0,0,0-2.16-.77h-4.07v8.78a5,5,0,0,1-1.11,3.55,5.4,5.4,0,0,1-3.56,1.39Z" transform="translate(-35.5 -177.5)"/><path class="cls-4" d="M344.9,344.63l-.35-3.16h2.05l.38,3.16v4l0,1.7-2.05.43Z" transform="translate(-35.5 -177.5)"/><path class="cls-4" d="M350.89,354.8h4.43a4.74,4.74,0,0,0,3.36-1.17,5.09,5.09,0,0,0,1.26-3.87v-1.65a6.2,6.2,0,0,0-.95-3.73,3.35,3.35,0,0,0-2.86-1.27h-2.84l-.7,3a6.39,6.39,0,0,0-.16,1.35,2,2,0,0,0,.5,1.43,3.06,3.06,0,0,0,1.66.73l-.43,1.43a4.29,4.29,0,0,1-2.74-1.06,3.37,3.37,0,0,1-.85-2.45,8.24,8.24,0,0,1,.16-1.59l1-4.48h4.72a5,5,0,0,1,4.06,1.72,7.65,7.65,0,0,1,1.48,5v1.51c0,2.35-.59,4.06-1.76,5.15a6.46,6.46,0,0,1-4.59,1.63h-4.78Z" transform="translate(-35.5 -177.5)"/></g></g><path class="cls-5" d="M298.41,255.88a1,1,0,0,1-1-1v-8.39a1,1,0,0,1,2.06,0v8.36a1,1,0,0,1-1,1Z" transform="translate(-35.5 -177.5)"/><path class="cls-5" d="M311.8,259.47a1,1,0,0,1-1.05-1,.94.94,0,0,1,.16-.59l4.18-7.24a1,1,0,0,1,1.39-.4,1,1,0,0,1,.4,1.4L312.71,259A1,1,0,0,1,311.8,259.47Z" transform="translate(-35.5 -177.5)"/><path class="cls-5" d="M321.61,269.28a1,1,0,0,1-.57-1.89l.06,0,7.24-4.13a1,1,0,0,1,1,1.78l-7.24,4.18A1,1,0,0,1,321.61,269.28Z" transform="translate(-35.5 -177.5)"/><path class="cls-5" d="M333.56,282.68H325.2a1,1,0,1,1,0-2.06h8.36a1,1,0,1,1,0,2.06Z" transform="translate(-35.5 -177.5)"/><path class="cls-5" d="M328.85,300.23a1,1,0,0,1-.51-.13l-7.24-4.18a1,1,0,1,1,1-1.79l7.24,4.18a1,1,0,0,1,.41,1.35l0,.08A1,1,0,0,1,328.85,300.23Z" transform="translate(-35.5 -177.5)"/><path class="cls-5" d="M268,300.23a1,1,0,0,1-.52-1.92l7.26-4.16a1,1,0,0,1,1.39.39,1,1,0,0,1-.39,1.4l-7.24,4.18A1.1,1.1,0,0,1,268,300.23Z" transform="translate(-35.5 -177.5)"/><path class="cls-5" d="M271.62,282.68h-8.36a1,1,0,1,1,0-2.06h8.36a1,1,0,0,1,0,2.06Z" transform="translate(-35.5 -177.5)"/><path class="cls-5" d="M275.2,269.28a1,1,0,0,1-.51-.14L267.45,265a1,1,0,1,1,1-1.78l7.26,4.18a1,1,0,0,1-.52,1.92Z" transform="translate(-35.5 -177.5)"/><path class="cls-5" d="M285,259.47a1,1,0,0,1-.89-.51l-4.18-7.24a1,1,0,0,1,.32-1.38l.06,0a1,1,0,0,1,1.37.33l0,.05,4.18,7.24a1,1,0,0,1-.32,1.38l-.05,0A1.18,1.18,0,0,1,285,259.47Z" transform="translate(-35.5 -177.5)"/><path class="cls-5" d="M306.22,318H290.6a1.77,1.77,0,0,1-1.77-1.77V316a29.8,29.8,0,0,0-7.58-19.41,22.69,22.69,0,0,1-5.54-14.93A23,23,0,0,1,297.16,259a22.72,22.72,0,0,1,18.43,37.55,30.23,30.23,0,0,0-7.6,19.72A1.78,1.78,0,0,1,306.22,318Zm-15.33-2.06h15A32.4,32.4,0,0,1,314,295.16,20.69,20.69,0,0,0,298.33,261c-.38,0-.76,0-1.13,0a20.9,20.9,0,0,0-19.49,20.6,20.64,20.64,0,0,0,5.09,13.62A31.94,31.94,0,0,1,290.89,315.94Z" transform="translate(-35.5 -177.5)"/><path class="cls-5" d="M306.51,324.78h-16.2a2.79,2.79,0,0,1,0-5.58h16.2a2.79,2.79,0,0,1,0,5.58Zm-16.2-3.55a.73.73,0,1,0,0,1.46h16.2a.73.73,0,0,0,0-1.46Z" transform="translate(-35.5 -177.5)"/><path class="cls-5" d="M305.93,321.23h-15a1,1,0,0,1-1-1V317a1,1,0,0,1,1-1h15a1,1,0,0,1,1,1v3.26A1,1,0,0,1,305.93,321.23Zm-14-2h13V318h-13Z" transform="translate(-35.5 -177.5)"/><path class="cls-5" d="M304.9,328h-13a2,2,0,0,1-2-2v-2.28a1,1,0,0,1,1-1h15a1,1,0,0,1,1,1V326A2.06,2.06,0,0,1,304.9,328Zm-13-3.25V326h13v-1.2Z" transform="translate(-35.5 -177.5)"/><path class="cls-5" d="M303.55,295.06a1,1,0,0,1-1-1v-6.77a1,1,0,0,1,2.06,0V294a1,1,0,0,1-1,1Z" transform="translate(-35.5 -177.5)"/><path class="cls-5" d="M298.36,276.37a5.62,5.62,0,0,1,0-11.23,5.47,5.47,0,0,1,4,1.63,5.62,5.62,0,0,1-3.94,9.6Zm0-9.17a3.55,3.55,0,1,0,2.51,1,3.54,3.54,0,0,0-2.51-1Z" transform="translate(-35.5 -177.5)"/><path class="cls-5" d="M293.27,295.09a1,1,0,0,1-1-1v-6.77a1,1,0,0,1,2.06,0v6.74a1,1,0,0,1-1,1Z" transform="translate(-35.5 -177.5)"/><path class="cls-5" d="M308.9,295.08a1,1,0,0,1-1-1V285.2a5.31,5.31,0,0,0-4.72-5.26,37.54,37.54,0,0,0-4.74-.15,39.62,39.62,0,0,0-4.75.17,5.3,5.3,0,0,0-4.75,5.27v8.83a1,1,0,0,1-2.05,0v-8.83a7.36,7.36,0,0,1,6.51-7.34,43.89,43.89,0,0,1,5-.17,41.82,41.82,0,0,1,5,.15,7.36,7.36,0,0,1,6.54,7.31v8.88a1,1,0,0,1-1,1Z" transform="translate(-35.5 -177.5)"/><path class="cls-5" d="M294.28,304h-2.57a1,1,0,0,1,0-2.06h2.57a1,1,0,1,1,0,2.06Z" transform="translate(-35.5 -177.5)"/><path class="cls-5" d="M303,304h-2.58a1,1,0,0,1,0-2.06H303a1,1,0,1,1,0,2.06Z" transform="translate(-35.5 -177.5)"/><g id="פיתוח_טכנולוגי" data-name="פיתוח טכנולוגי" class="cls-3"><g class="cls-3"><path class="cls-4" d="M354.25,564l-.36-3.27H356l.39,3.27v4.18l0,1.76-2.13.45Z" transform="translate(-35.5 -177.5)"/><path class="cls-4" d="M365.4,576.22l-.7-3.81a8.8,8.8,0,0,1-2,2.57,8.52,8.52,0,0,1-2.84,1.63l-.78-1.74a9.91,9.91,0,0,0,3.16-1.76,8.22,8.22,0,0,0,2.1-2.8v-5.15a4.42,4.42,0,0,0-.35-2,1.74,1.74,0,0,0-1.33-.8l-1.79-.28.31-1.68,2.35.36a3.21,3.21,0,0,1,2.3,1.26,5.53,5.53,0,0,1,.67,3v5.4l1,5.83Z" transform="translate(-35.5 -177.5)"/><path class="cls-4" d="M370.94,564l-.36-3.27h2.12l.39,3.27v12.27h-2.15Z" transform="translate(-35.5 -177.5)"/><path class="cls-4" d="M387.07,560.68v1.82l-5.41,13.72h-2.15l5.4-13.83h-8.68v-6.25h2v4.54Z" transform="translate(-35.5 -177.5)"/><path class="cls-4" d="M390.54,564l-.37-3.27h2.13l.39,3.27v12.27h-2.15Z" transform="translate(-35.5 -177.5)"/><path class="cls-4" d="M396,574.51h4.87v-9.32a3.14,3.14,0,0,0-.54-2,2.54,2.54,0,0,0-1.64-.83l-1.88-.28.31-1.68,2.44.36a4,4,0,0,1,2.57,1.39,4.64,4.64,0,0,1,.9,3v11.09h-7Z" transform="translate(-35.5 -177.5)"/><path class="cls-4" d="M406.19,574.51h3.7a4.27,4.27,0,0,0,3.41-1.32,5.67,5.67,0,0,0,1.15-3.86v-1.76a5.72,5.72,0,0,0-1.15-3.87,4.26,4.26,0,0,0-3.41-1.31h-3.7v-1.71h4.12a6,6,0,0,1,4.66,1.79,7.42,7.42,0,0,1,1.64,5.18v1.6a7.45,7.45,0,0,1-1.64,5.18,6,6,0,0,1-4.66,1.79h-4.12Z" transform="translate(-35.5 -177.5)"/><path class="cls-4" d="M419.49,560.68h2.16l1.62,13.83a8.66,8.66,0,0,0,5.19-2.13q1.95-1.78,1.81-5.46v-.7a4.19,4.19,0,0,0-.9-2.8,3.59,3.59,0,0,0-2.68-1.17l-1.4-.09.14-1.73,1.56.11a5.91,5.91,0,0,1,3.88,1.48,5.44,5.44,0,0,1,1.5,3.92l0,.79q.17,4.82-2.86,7.16a14.13,14.13,0,0,1-8.17,2.61Z" transform="translate(-35.5 -177.5)"/><path class="cls-4" d="M451.83,562.09a6.22,6.22,0,0,1,1.23,4.19v9.94h-2.15v-10a4.51,4.51,0,0,0-.77-2.84,2.74,2.74,0,0,0-2.26-1h-4.76v13.83H441V560.68h7.39A4.36,4.36,0,0,1,451.83,562.09Z" transform="translate(-35.5 -177.5)"/><path class="cls-4" d="M457.15,564l-.36-3.27h2.12l.4,3.27v12.27h-2.16Z" transform="translate(-35.5 -177.5)"/><path class="cls-4" d="M461.85,575.07a3.12,3.12,0,0,0,2.29-.94,3.87,3.87,0,0,0,.63-2.42v-11h6.86c3.13,0,4.7,1.73,4.7,5.21v10.33h-2.16V565.8a3.68,3.68,0,0,0-.78-2.62,3,3,0,0,0-2.24-.79h-4.23v9.09a5.18,5.18,0,0,1-1.15,3.69,5.57,5.57,0,0,1-3.69,1.44Z" transform="translate(-35.5 -177.5)"/><path class="cls-4" d="M480.36,564l-.36-3.27h2.13l.39,3.27v4.18l0,1.76-2.13.45Z" transform="translate(-35.5 -177.5)"/><path class="cls-4" d="M486.58,574.51h4.59a4.91,4.91,0,0,0,3.49-1.22,5.33,5.33,0,0,0,1.3-4v-1.7a6.46,6.46,0,0,0-1-3.87,3.46,3.46,0,0,0-3-1.31h-2.94l-.73,3.1a7,7,0,0,0-.17,1.4,2.08,2.08,0,0,0,.52,1.49,3.24,3.24,0,0,0,1.72.75l-.44,1.49a4.47,4.47,0,0,1-2.85-1.11,3.52,3.52,0,0,1-.88-2.53,8.72,8.72,0,0,1,.17-1.65l1.06-4.65h4.9a5.19,5.19,0,0,1,4.22,1.79,7.92,7.92,0,0,1,1.52,5.15v1.57c0,2.43-.6,4.2-1.82,5.33a6.7,6.7,0,0,1-4.76,1.7h-4.95Z" transform="translate(-35.5 -177.5)"/></g></g><path class="cls-5" d="M457.31,471.45H394.69a5.32,5.32,0,0,0-5.3,5.3v45.53a5.31,5.31,0,0,0,5.3,5.3H418v8.22h-.45a7.87,7.87,0,0,0-7.14,7.87,1,1,0,0,0,.95,1h29.38a1,1,0,0,0,.95-1,7.91,7.91,0,0,0-7.41-7.89h-.47v-8.24h23.55a5.3,5.3,0,0,0,5.3-5.3V476.75A5.31,5.31,0,0,0,457.31,471.45Zm-17.78,70.69.17.63H412.3l.18-.63a6,6,0,0,1,5.8-4.43h15.45A6,6,0,0,1,439.53,542.14Zm-19.68-6.33v-8.27h12v8.23Zm40.86-13.53a3.4,3.4,0,0,1-3.4,3.39H394.69a3.4,3.4,0,0,1-3.4-3.39V476.75a3.42,3.42,0,0,1,3.4-3.4h62.62a3.41,3.41,0,0,1,3.4,3.4Z" transform="translate(-35.5 -177.5)"/><path class="cls-5" d="M415.48,479.16h0a1,1,0,0,0,.64-1.26,1,1,0,0,0-.64-.64H396.14a1,1,0,0,0-.95.95v39.14a1,1,0,0,0,.95.95h59.72a1,1,0,0,0,1-.95V478.21a1,1,0,0,0-1-.95H447.4a1,1,0,0,0-1.26.64,1,1,0,0,0,.64,1.26.94.94,0,0,0,.62,0h7.51V516.4H397.09V479.16H413" transform="translate(-35.5 -177.5)"/><path class="cls-5" d="M424.84,479.18h-5.76a1,1,0,0,1-.7-1.22,1,1,0,0,1,.7-.71h5.76a1,1,0,0,1,.7,1.23A1,1,0,0,1,424.84,479.18Z" transform="translate(-35.5 -177.5)"/><path class="cls-5" d="M434.48,479.18h-5.8A1,1,0,0,1,428,478a1,1,0,0,1,.7-.71h5.8a1,1,0,0,1,.7,1.23A1,1,0,0,1,434.48,479.18Z" transform="translate(-35.5 -177.5)"/><path class="cls-5" d="M444,479.18h-5.75a1,1,0,0,1-.7-1.22,1,1,0,0,1,.7-.71H444a1,1,0,0,1,1.23.71,1,1,0,0,1-.7,1.22A1,1,0,0,1,444,479.18Z" transform="translate(-35.5 -177.5)"/><path class="cls-5" d="M417.73,505.54a.85.85,0,0,1-.65-.27l-6.83-6.83a.92.92,0,0,1,0-1.3l6.83-6.83a.92.92,0,0,1,1.3,1.3l-6.19,6.18,6.19,6.18a1,1,0,0,1,.27.65A.92.92,0,0,1,417.73,505.54Z" transform="translate(-35.5 -177.5)"/><path class="cls-5" d="M434.27,505.54a.92.92,0,0,1-.92-.92,1,1,0,0,1,.27-.65l6.19-6.18-6.19-6.18a1,1,0,0,1-.27-.65.92.92,0,0,1,1.57-.65l6.83,6.83a.92.92,0,0,1,0,1.3l-6.83,6.83A.84.84,0,0,1,434.27,505.54Z" transform="translate(-35.5 -177.5)"/><path class="cls-5" d="M423.17,509.46h-.24a.92.92,0,0,1-.66-1.12L428,486.82a.93.93,0,0,1,.88-.69h.24a.93.93,0,0,1,.66,1.12l-5.68,21.52A.9.9,0,0,1,423.17,509.46Z" transform="translate(-35.5 -177.5)"/></svg>